<svg width="25" height="25" viewBox="0 0 25 25" fill="none" xmlns="http://www.w3.org/2000/svg">
<rect width="25" height="25" fill="white"/>
<path d="M10.904 10.28C11.424 10.28 11.888 10.388 12.296 10.604C12.712 10.82 13.036 11.14 13.268 11.564C13.508 11.988 13.628 12.5 13.628 13.1V17H12.272V13.304C12.272 12.712 12.124 12.26 11.828 11.948C11.532 11.628 11.128 11.468 10.616 11.468C10.104 11.468 9.696 11.628 9.392 11.948C9.096 12.26 8.948 12.712 8.948 13.304V17H7.592V13.304C7.592 12.712 7.444 12.26 7.148 11.948C6.852 11.628 6.448 11.468 5.936 11.468C5.424 11.468 5.016 11.628 4.712 11.948C4.416 12.26 4.268 12.712 4.268 13.304V17H2.9V10.388H4.268V11.144C4.492 10.872 4.776 10.66 5.12 10.508C5.464 10.356 5.832 10.28 6.224 10.28C6.752 10.28 7.224 10.392 7.64 10.616C8.056 10.84 8.376 11.164 8.6 11.588C8.8 11.188 9.112 10.872 9.536 10.64C9.96 10.4 10.416 10.28 10.904 10.28ZM14.9128 13.664C14.9128 13 15.0488 12.412 15.3208 11.9C15.6008 11.388 15.9768 10.992 16.4488 10.712C16.9288 10.424 17.4608 10.28 18.0448 10.28C18.4768 10.28 18.9008 10.376 19.3168 10.568C19.7408 10.752 20.0768 11 20.3248 11.312V8.12H21.7048V17H20.3248V16.004C20.1008 16.324 19.7888 16.588 19.3888 16.796C18.9968 17.004 18.5448 17.108 18.0328 17.108C17.4568 17.108 16.9288 16.964 16.4488 16.676C15.9768 16.38 15.6008 15.972 15.3208 15.452C15.0488 14.924 14.9128 14.328 14.9128 13.664ZM20.3248 13.688C20.3248 13.232 20.2288 12.836 20.0368 12.5C19.8528 12.164 19.6088 11.908 19.3048 11.732C19.0008 11.556 18.6728 11.468 18.3208 11.468C17.9688 11.468 17.6408 11.556 17.3368 11.732C17.0328 11.9 16.7848 12.152 16.5928 12.488C16.4088 12.816 16.3168 13.208 16.3168 13.664C16.3168 14.12 16.4088 14.52 16.5928 14.864C16.7848 15.208 17.0328 15.472 17.3368 15.656C17.6488 15.832 17.9768 15.92 18.3208 15.92C18.6728 15.92 19.0008 15.832 19.3048 15.656C19.6088 15.48 19.8528 15.224 20.0368 14.888C20.2288 14.544 20.3248 14.144 20.3248 13.688Z" fill="#B8C0FF"/>
</svg>
