<svg width="20" height="10" viewBox="0 0 20 10" fill="none" xmlns="http://www.w3.org/2000/svg">
<path d="M9.084 2.256C9.9 2.256 10.556 2.508 11.052 3.012C11.556 3.508 11.808 4.204 11.808 5.1V9H10.128V5.328C10.128 4.808 9.996 4.412 9.732 4.14C9.468 3.86 9.108 3.72 8.652 3.72C8.196 3.72 7.832 3.86 7.56 4.14C7.296 4.412 7.164 4.808 7.164 5.328V9H5.484V5.328C5.484 4.808 5.352 4.412 5.088 4.14C4.824 3.86 4.464 3.72 4.008 3.72C3.544 3.72 3.176 3.86 2.904 4.14C2.64 4.412 2.508 4.808 2.508 5.328V9H0.828V2.352H2.508V3.156C2.724 2.876 3 2.656 3.336 2.496C3.68 2.336 4.056 2.256 4.464 2.256C4.984 2.256 5.448 2.368 5.856 2.592C6.264 2.808 6.58 3.12 6.804 3.528C7.02 3.144 7.332 2.836 7.74 2.604C8.156 2.372 8.604 2.256 9.084 2.256ZM12.9702 5.652C12.9702 4.98 13.1022 4.384 13.3662 3.864C13.6382 3.344 14.0062 2.944 14.4702 2.664C14.9342 2.384 15.4502 2.244 16.0182 2.244C16.4502 2.244 16.8622 2.34 17.2542 2.532C17.6462 2.716 17.9582 2.964 18.1902 3.276V0.12H19.8942V9H18.1902V8.016C17.9822 8.344 17.6902 8.608 17.3142 8.808C16.9382 9.008 16.5022 9.108 16.0062 9.108C15.4462 9.108 14.9342 8.964 14.4702 8.676C14.0062 8.388 13.6382 7.984 13.3662 7.464C13.1022 6.936 12.9702 6.332 12.9702 5.652ZM18.2022 5.676C18.2022 5.268 18.1222 4.92 17.9622 4.632C17.8022 4.336 17.5862 4.112 17.3142 3.96C17.0422 3.8 16.7502 3.72 16.4382 3.72C16.1262 3.72 15.8382 3.796 15.5742 3.948C15.3102 4.1 15.0942 4.324 14.9262 4.62C14.7662 4.908 14.6862 5.252 14.6862 5.652C14.6862 6.052 14.7662 6.404 14.9262 6.708C15.0942 7.004 15.3102 7.232 15.5742 7.392C15.8462 7.552 16.1342 7.632 16.4382 7.632C16.7502 7.632 17.0422 7.556 17.3142 7.404C17.5862 7.244 17.8022 7.02 17.9622 6.732C18.1222 6.436 18.2022 6.084 18.2022 5.676Z" fill="black"/>
</svg>
